<svg xmlns="http://www.w3.org/2000/svg" viewBox="0 0 32 32">
  <!-- Globe background -->
  <circle cx="16" cy="16" r="15" fill="#1a6b3c"/>
  <!-- Equator line -->
  <path d="M1.5 16 Q8 13 16 16 Q24 19 30.5 16" stroke="#4ade80" stroke-width="0.8" fill="none"/>
  <!-- Tropic lines -->
  <path d="M3 10.5 Q8 8.5 16 10.5 Q24 12.5 29 10.5" stroke="#4ade80" stroke-width="0.5" fill="none" opacity="0.6"/>
  <path d="M3 21.5 Q8 19.5 16 21.5 Q24 23.5 29 21.5" stroke="#4ade80" stroke-width="0.5" fill="none" opacity="0.6"/>
  <!-- Meridian lines -->
  <path d="M16 1 Q13 8 13 16 Q13 24 16 31" stroke="#4ade80" stroke-width="0.5" fill="none" opacity="0.6"/>
  <path d="M16 1 Q19 8 19 16 Q19 24 16 31" stroke="#4ade80" stroke-width="0.5" fill="none" opacity="0.6"/>
  <path d="M16 1 Q9 8 8 16 Q9 24 16 31" stroke="#4ade80" stroke-width="0.5" fill="none" opacity="0.4"/>
  <path d="M16 1 Q23 8 24 16 Q23 24 16 31" stroke="#4ade80" stroke-width="0.5" fill="none" opacity="0.4"/>
  <!-- Globe outline -->
  <circle cx="16" cy="16" r="15" fill="none" stroke="#4ade80" stroke-width="1"/>
</svg>
